<svg width="48" height="48" viewBox="0 0 48 48" fill="none" xmlns="http://www.w3.org/2000/svg">
<path d="M16 40H10C9.46957 40 8.96086 39.7893 8.58579 39.4142C8.21071 39.0391 8 38.5304 8 38V32C8 31.4696 7.78929 30.9609 7.41421 30.5858C7.03914 30.2107 6.53043 30 6 30C5.46957 30 4.96086 30.2107 4.58579 30.5858C4.21071 30.9609 4 31.4696 4 32V38C4 39.5913 4.63214 41.1174 5.75736 42.2426C6.88258 43.3679 8.4087 44 10 44H16C16.5304 44 17.0391 43.7893 17.4142 43.4142C17.7893 43.0391 18 42.5304 18 42C18 41.4696 17.7893 40.9609 17.4142 40.5858C17.0391 40.2107 16.5304 40 16 40ZM6 18C6.53043 18 7.03914 17.7893 7.41421 17.4142C7.78929 17.0391 8 16.5304 8 16V10C8 9.46957 8.21071 8.96086 8.58579 8.58579C8.96086 8.21071 9.46957 8 10 8H16C16.5304 8 17.0391 7.78929 17.4142 7.41421C17.7893 7.03914 18 6.53043 18 6C18 5.46957 17.7893 4.96086 17.4142 4.58579C17.0391 4.21071 16.5304 4 16 4H10C8.4087 4 6.88258 4.63214 5.75736 5.75736C4.63214 6.88258 4 8.4087 4 10V16C4 16.5304 4.21071 17.0391 4.58579 17.4142C4.96086 17.7893 5.46957 18 6 18ZM38 4H32C31.4696 4 30.9609 4.21071 30.5858 4.58579C30.2107 4.96086 30 5.46957 30 6C30 6.53043 30.2107 7.03914 30.5858 7.41421C30.9609 7.78929 31.4696 8 32 8H38C38.5304 8 39.0391 8.21071 39.4142 8.58579C39.7893 8.96086 40 9.46957 40 10V16C40 16.5304 40.2107 17.0391 40.5858 17.4142C40.9609 17.7893 41.4696 18 42 18C42.5304 18 43.0391 17.7893 43.4142 17.4142C43.7893 17.0391 44 16.5304 44 16V10C44 8.4087 43.3679 6.88258 42.2426 5.75736C41.1174 4.63214 39.5913 4 38 4ZM32 24C32 23.4696 31.7893 22.9609 31.4142 22.5858C31.0391 22.2107 30.5304 22 30 22H26V18C26 17.4696 25.7893 16.9609 25.4142 16.5858C25.0391 16.2107 24.5304 16 24 16C23.4696 16 22.9609 16.2107 22.5858 16.5858C22.2107 16.9609 22 17.4696 22 18V22H18C17.4696 22 16.9609 22.2107 16.5858 22.5858C16.2107 22.9609 16 23.4696 16 24C16 24.5304 16.2107 25.0391 16.5858 25.4142C16.9609 25.7893 17.4696 26 18 26H22V30C22 30.5304 22.2107 31.0391 22.5858 31.4142C22.9609 31.7893 23.4696 32 24 32C24.5304 32 25.0391 31.7893 25.4142 31.4142C25.7893 31.0391 26 30.5304 26 30V26H30C30.5304 26 31.0391 25.7893 31.4142 25.4142C31.7893 25.0391 32 24.5304 32 24ZM42 30C41.4696 30 40.9609 30.2107 40.5858 30.5858C40.2107 30.9609 40 31.4696 40 32V38C40 38.5304 39.7893 39.0391 39.4142 39.4142C39.0391 39.7893 38.5304 40 38 40H32C31.4696 40 30.9609 40.2107 30.5858 40.5858C30.2107 40.9609 30 41.4696 30 42C30 42.5304 30.2107 43.0391 30.5858 43.4142C30.9609 43.7893 31.4696 44 32 44H38C39.5913 44 41.1174 43.3679 42.2426 42.2426C43.3679 41.1174 44 39.5913 44 38V32C44 31.4696 43.7893 30.9609 43.4142 30.5858C43.0391 30.2107 42.5304 30 42 30Z" fill="white"/>
</svg>
