<svg width="48" height="48" viewBox="0 0 48 48" fill="none" xmlns="http://www.w3.org/2000/svg">
<path d="M17.3999 19.9999C17.7746 20.3724 18.2815 20.5815 18.8099 20.5815C19.3382 20.5815 19.8452 20.3724 20.2199 19.9999C20.5924 19.6252 20.8015 19.1183 20.8015 18.5899C20.8015 18.0615 20.5924 17.5546 20.2199 17.1799L7.67988 4.57988C7.30327 4.20327 6.79248 3.9917 6.25988 3.9917C5.72727 3.9917 5.21649 4.20327 4.83988 4.57988C4.46327 4.95649 4.25169 5.46728 4.25169 5.99988C4.25169 6.53249 4.46327 7.04328 4.83988 7.41988L17.3999 19.9999ZM41.9999 27.9999C41.4694 27.9999 40.9607 28.2106 40.5857 28.5857C40.2106 28.9607 39.9999 29.4694 39.9999 29.9999V37.1799L30.8799 27.9999C30.498 27.618 29.98 27.4034 29.4399 27.4034C28.8998 27.4034 28.3818 27.618 27.9999 27.9999C27.618 28.3818 27.4034 28.8998 27.4034 29.4399C27.4034 29.98 27.618 30.498 27.9999 30.8799L37.1799 39.9999H29.9999C29.4694 39.9999 28.9607 40.2106 28.5857 40.5857C28.2106 40.9607 27.9999 41.4694 27.9999 41.9999C27.9999 42.5303 28.2106 43.039 28.5857 43.4141C28.9607 43.7892 29.4694 43.9999 29.9999 43.9999H41.9999C42.2612 43.9967 42.5194 43.9424 42.7599 43.8399C43.2486 43.6369 43.6369 43.2486 43.8399 42.7599C43.9424 42.5194 43.9967 42.2612 43.9999 41.9999V29.9999C43.9999 29.4694 43.7892 28.9607 43.4141 28.5857C43.039 28.2106 42.5303 27.9999 41.9999 27.9999ZM43.8399 5.23988C43.6369 4.75118 43.2486 4.36283 42.7599 4.15988C42.5194 4.0574 42.2612 4.00304 41.9999 3.99988H29.9999C29.4694 3.99988 28.9607 4.2106 28.5857 4.58567C28.2106 4.96074 27.9999 5.46945 27.9999 5.99988C27.9999 6.53032 28.2106 7.03902 28.5857 7.4141C28.9607 7.78917 29.4694 7.99988 29.9999 7.99988H37.1799L4.57988 40.5799C4.39242 40.7658 4.24363 40.987 4.1421 41.2307C4.04056 41.4744 3.98828 41.7359 3.98828 41.9999C3.98828 42.2639 4.04056 42.5253 4.1421 42.769C4.24363 43.0128 4.39242 43.234 4.57988 43.4199C4.7658 43.6073 4.98701 43.7561 5.23072 43.8577C5.47444 43.9592 5.73585 44.0115 5.99988 44.0115C6.2639 44.0115 6.52531 43.9592 6.76903 43.8577C7.01275 43.7561 7.23395 43.6073 7.41988 43.4199L39.9999 10.8199V17.9999C39.9999 18.5303 40.2106 19.039 40.5857 19.4141C40.9607 19.7892 41.4694 19.9999 41.9999 19.9999C42.5303 19.9999 43.039 19.7892 43.4141 19.4141C43.7892 19.039 43.9999 18.5303 43.9999 17.9999V5.99988C43.9967 5.73853 43.9424 5.48033 43.8399 5.23988Z" fill="white"/>
</svg>
