<svg width="24" height="24" viewBox="0 0 24 24" fill="none" xmlns="http://www.w3.org/2000/svg">
<path d="M20.8647 1.6001H3.13554C2.72832 1.6001 2.33777 1.76187 2.04982 2.04982C1.76187 2.33777 1.6001 2.72832 1.6001 3.13554V20.8647C1.6001 21.2719 1.76187 21.6624 2.04982 21.9504C2.33777 22.2383 2.72832 22.4001 3.13554 22.4001H20.8647C21.2719 22.4001 21.6624 22.2383 21.9504 21.9504C22.2383 21.6624 22.4001 21.2719 22.4001 20.8647V3.13554C22.4001 2.72832 22.2383 2.33777 21.9504 2.04982C21.6624 1.76187 21.2719 1.6001 20.8647 1.6001ZM7.79965 19.3191H4.67243V9.38565H7.79965V19.3191ZM6.23388 8.0091C5.87915 8.0071 5.53296 7.90007 5.239 7.70151C4.94504 7.50295 4.71649 7.22176 4.58219 6.89343C4.44789 6.5651 4.41386 6.20434 4.48439 5.85669C4.55492 5.50904 4.72686 5.19007 4.9785 4.94004C5.23014 4.69001 5.5502 4.52013 5.8983 4.45183C6.2464 4.38353 6.60693 4.41988 6.93439 4.55628C7.26185 4.69269 7.54156 4.92304 7.73823 5.21827C7.9349 5.51349 8.03971 5.86036 8.03943 6.2151C8.04278 6.45259 7.99827 6.68833 7.90857 6.90826C7.81887 7.12819 7.68582 7.32781 7.51733 7.49522C7.34884 7.66263 7.14837 7.79441 6.92787 7.8827C6.70736 7.97098 6.47134 8.01397 6.23388 8.0091ZM19.3263 19.3278H16.2005V13.901C16.2005 12.3005 15.5202 11.8065 14.642 11.8065C13.7147 11.8065 12.8047 12.5057 12.8047 13.9414V19.3278H9.67743V9.39288H12.6848V10.7694H12.7252C13.0271 10.1584 14.0844 9.1141 15.6979 9.1141C17.4428 9.1141 19.3278 10.1498 19.3278 13.1831L19.3263 19.3278Z" fill="white"/>
</svg>
