<svg width="48" height="48" viewBox="0 0 48 48" fill="none" xmlns="http://www.w3.org/2000/svg">
<path d="M44 21.9999C44.0056 20.5902 43.6386 19.2041 42.9361 17.9818C42.2337 16.7596 41.2208 15.7447 40 15.0399C40.0301 14.6939 40.0301 14.3459 40 13.9999C40 12.4086 39.3678 10.8824 38.2426 9.75723C37.1174 8.63201 35.5913 7.99987 34 7.99987H33.64C33.3069 7.07649 32.7524 6.24893 32.025 5.58976C31.2977 4.93059 30.4197 4.45993 29.4681 4.21907C28.5165 3.97821 27.5204 3.9745 26.567 4.20827C25.6137 4.44203 24.7322 4.90613 24 5.55987C23.2677 4.90613 22.3863 4.44203 21.4329 4.20827C20.4796 3.9745 19.4834 3.97821 18.5318 4.21907C17.5802 4.45993 16.7022 4.93059 15.9749 5.58976C15.2475 6.24893 14.693 7.07649 14.36 7.99987H14C12.4087 7.99987 10.8825 8.63201 9.75733 9.75723C8.63211 10.8824 7.99997 12.4086 7.99997 13.9999C7.96987 14.3459 7.96987 14.6939 7.99997 15.0399C6.86489 15.6815 5.90383 16.5908 5.20045 17.6886C4.49707 18.7865 4.07269 20.0396 3.96424 21.3389C3.8558 22.6383 4.06659 23.9444 4.57825 25.1437C5.08991 26.343 5.88695 27.399 6.89997 28.2199C6.24451 29.4424 5.9182 30.8143 5.95306 32.2011C5.98792 33.5878 6.38276 34.9416 7.09881 36.1297C7.81487 37.3177 8.82754 38.2992 10.0374 38.9777C11.2473 39.6562 12.6128 40.0084 14 39.9999H14.36C14.693 40.9232 15.2475 41.7508 15.9749 42.41C16.7022 43.0691 17.5802 43.5398 18.5318 43.7807C19.4834 44.0215 20.4796 44.0252 21.4329 43.7915C22.3863 43.5577 23.2677 43.0936 24 42.4399C24.7322 43.0936 25.6137 43.5577 26.567 43.7915C27.5204 44.0252 28.5165 44.0215 29.4681 43.7807C30.4197 43.5398 31.2977 43.0691 32.025 42.41C32.7524 41.7508 33.3069 40.9232 33.64 39.9999H34C35.3786 39.9912 36.7316 39.6263 37.9278 38.9407C39.1239 38.2551 40.1225 37.272 40.8268 36.0868C41.5311 34.9015 41.9171 33.5544 41.9475 32.1761C41.9778 30.7977 41.6514 29.4349 41 28.2199C41.9328 27.473 42.6865 26.5266 43.2057 25.4502C43.7248 24.3739 43.9962 23.1949 44 21.9999ZM22 17.0999C21.5644 16.8507 21.1096 16.6367 20.64 16.4599C20.1361 16.2901 19.5854 16.3275 19.109 16.5638C18.6327 16.8001 18.2697 17.216 18.1 17.7199C17.9302 18.2238 17.9676 18.7745 18.2039 19.2508C18.4402 19.7272 18.8561 20.0901 19.36 20.2599C20.1299 20.5382 20.7958 21.046 21.2679 21.7149C21.74 22.3837 21.9955 23.1812 22 23.9999V27.0999C21.5644 26.8507 21.1096 26.6367 20.64 26.4599C20.1361 26.2901 19.5854 26.3275 19.109 26.5638C18.6327 26.8001 18.2697 27.216 18.1 27.7199C17.9302 28.2238 17.9676 28.7745 18.2039 29.2508C18.4402 29.7272 18.8561 30.0901 19.36 30.2599C20.1299 30.5382 20.7958 31.046 21.2679 31.7149C21.74 32.3837 21.9955 33.1812 22 33.9999V37.9999C22 38.5303 21.7893 39.039 21.4142 39.4141C21.0391 39.7892 20.5304 39.9999 20 39.9999C19.613 39.9973 19.2351 39.8826 18.9121 39.6696C18.5891 39.4566 18.3347 39.1545 18.18 38.7999C18.5153 38.6031 18.8361 38.3825 19.14 38.1399C19.3422 37.9718 19.5094 37.7655 19.6319 37.5328C19.7544 37.3001 19.8299 37.0456 19.854 36.7837C19.8782 36.5219 19.8505 36.2578 19.7726 36.0066C19.6947 35.7555 19.5681 35.5221 19.4 35.3199C19.2319 35.1176 19.0256 34.9505 18.7929 34.828C18.5602 34.7055 18.3057 34.63 18.0438 34.6058C17.782 34.5817 17.5179 34.6094 17.2667 34.6873C17.0156 34.7652 16.7822 34.8918 16.58 35.0599C15.8578 35.6678 14.9439 36.0008 14 35.9999C12.9391 35.9999 11.9217 35.5784 11.1715 34.8283C10.4214 34.0781 9.99997 33.0607 9.99997 31.9999C10.0095 31.247 10.2314 30.5122 10.64 29.8799C11.0888 29.9604 11.544 30.0005 12 29.9999C12.5304 29.9999 13.0391 29.7892 13.4142 29.4141C13.7893 29.039 14 28.5303 14 27.9999C14 27.4694 13.7893 26.9607 13.4142 26.5857C13.0391 26.2106 12.5304 25.9999 12 25.9999C11.5275 26.0026 11.059 25.9143 10.62 25.7399C9.90066 25.4804 9.27078 25.0203 8.80495 24.4139C8.33912 23.8075 8.05687 23.0803 7.99162 22.3184C7.92638 21.5565 8.08088 20.7919 8.43683 20.1151C8.79277 19.4384 9.33524 18.8778 9.99997 18.4999C10.2842 18.7613 10.5922 18.9957 10.92 19.1999C11.3814 19.4651 11.9294 19.5361 12.4432 19.3973C12.9571 19.2586 13.3948 18.9213 13.66 18.4599C13.9252 17.9984 13.9962 17.4505 13.8574 16.9366C13.7187 16.4228 13.3814 15.9851 12.92 15.7199C12.6384 15.5646 12.4036 15.3367 12.24 15.0599C12.0551 14.7388 11.9714 14.3693 12 13.9999C12 13.4694 12.2107 12.9607 12.5858 12.5857C12.9608 12.2106 13.4695 11.9999 14 11.9999C14.1393 11.9804 14.2806 11.9804 14.42 11.9999C14.5258 12.3212 14.6528 12.6352 14.8 12.9399C14.9306 13.169 15.1053 13.3701 15.314 13.5315C15.5227 13.6928 15.7613 13.8113 16.016 13.8801C16.2706 13.9489 16.5364 13.9666 16.798 13.9322C17.0595 13.8979 17.3117 13.8121 17.54 13.6799C17.9834 13.4131 18.3061 12.9848 18.4404 12.4851C18.5747 11.9853 18.51 11.4529 18.26 10.9999C18.0922 10.6931 18.0028 10.3495 18 9.99987C18 9.46943 18.2107 8.96073 18.5858 8.58565C18.9608 8.21058 19.4695 7.99987 20 7.99987C20.5304 7.99987 21.0391 8.21058 21.4142 8.58565C21.7893 8.96073 22 9.46943 22 9.99987V17.0999ZM37.38 25.7399C36.9409 25.9143 36.4724 26.0026 36 25.9999C35.4695 25.9999 34.9608 26.2106 34.5858 26.5857C34.2107 26.9607 34 27.4694 34 27.9999C34 28.5303 34.2107 29.039 34.5858 29.4141C34.9608 29.7892 35.4695 29.9999 36 29.9999C36.456 30.0005 36.9111 29.9604 37.36 29.8799C37.7686 30.5122 37.9904 31.247 38 31.9999C38 33.0607 37.5785 34.0781 36.8284 34.8283C36.0783 35.5784 35.0608 35.9999 34 35.9999C33.056 36.0008 32.1421 35.6678 31.42 35.0599C31.0115 34.7204 30.485 34.5571 29.9561 34.6058C29.4273 34.6546 28.9394 34.9114 28.6 35.3199C28.2605 35.7283 28.0972 36.2549 28.1459 36.7837C28.1947 37.3126 28.4515 37.8004 28.86 38.1399C29.1638 38.3825 29.4846 38.6031 29.82 38.7999C29.6652 39.1545 29.4109 39.4566 29.0878 39.6696C28.7648 39.8826 28.3869 39.9973 28 39.9999C27.4695 39.9999 26.9608 39.7892 26.5858 39.4141C26.2107 39.039 26 38.5303 26 37.9999V33.9999C26.0044 33.1812 26.2599 32.3837 26.732 31.7149C27.2041 31.046 27.8701 30.5382 28.64 30.2599C29.1439 30.0901 29.5597 29.7272 29.796 29.2508C30.0323 28.7745 30.0697 28.2238 29.9 27.7199C29.7302 27.216 29.3673 26.8001 28.8909 26.5638C28.4146 26.3275 27.8639 26.2901 27.36 26.4599C26.8903 26.6367 26.4356 26.8507 26 27.0999V23.9999C26.0044 23.1812 26.2599 22.3837 26.732 21.7149C27.2041 21.046 27.8701 20.5382 28.64 20.2599C29.1439 20.0901 29.5597 19.7272 29.796 19.2508C30.0323 18.7745 30.0697 18.2238 29.9 17.7199C29.7302 17.216 29.3673 16.8001 28.8909 16.5638C28.4146 16.3275 27.8639 16.2901 27.36 16.4599C26.8903 16.6367 26.4356 16.8507 26 17.0999V9.99987C26 9.46943 26.2107 8.96073 26.5858 8.58565C26.9608 8.21058 27.4695 7.99987 28 7.99987C28.5304 7.99987 29.0391 8.21058 29.4142 8.58565C29.7893 8.96073 30 9.46943 30 9.99987C29.9971 10.3495 29.9078 10.6931 29.74 10.9999C29.6069 11.2269 29.52 11.478 29.4841 11.7388C29.4483 11.9995 29.4643 12.2648 29.5312 12.5193C29.5981 12.7739 29.7146 13.0127 29.8739 13.2222C30.0333 13.4316 30.2325 13.6075 30.46 13.7399C30.6882 13.8721 30.9404 13.9579 31.202 13.9922C31.4635 14.0266 31.7293 14.0089 31.984 13.9401C32.2387 13.8713 32.4772 13.7528 32.6859 13.5915C32.8946 13.4301 33.0693 13.229 33.2 12.9999C33.3497 12.6757 33.4766 12.3416 33.58 11.9999C33.7193 11.9804 33.8606 11.9804 34 11.9999C34.5304 11.9999 35.0391 12.2106 35.4142 12.5857C35.7893 12.9607 36 13.4694 36 13.9999C35.9969 14.3919 35.8787 14.7745 35.66 15.0999C35.4964 15.3594 35.2692 15.5728 35 15.7199C34.5385 15.9851 34.2013 16.4228 34.0625 16.9366C33.9237 17.4505 33.9948 17.9984 34.26 18.4599C34.5252 18.9213 34.9629 19.2586 35.4767 19.3973C35.9906 19.5361 36.5385 19.4651 37 19.1999C37.3591 19.0057 37.6946 18.7708 38 18.4999C38.667 18.8711 39.2138 19.4255 39.5759 20.0975C39.938 20.7696 40.1002 21.5312 40.0435 22.2924C39.9867 23.0537 39.7133 23.7828 39.2555 24.3937C38.7977 25.0045 38.1747 25.4716 37.46 25.7399H37.38Z" fill="white"/>
</svg>
