<svg width="24" height="24" viewBox="0 0 24 24" fill="none" xmlns="http://www.w3.org/2000/svg">
<path d="M12.0264 24H11.9736C5.37143 24 0 18.6286 0 12.0264V11.9736C0 5.37142 5.37143 0 11.9736 0H12.0264C18.6286 0 24 5.37142 24 11.9736V12.0264C24 18.6286 18.6286 24 12.0264 24ZM11.9736 0.812375C5.81904 0.812375 0.812375 5.81904 0.812375 11.9736V12.0264C0.812375 18.181 5.81904 23.1876 11.9736 23.1876H12.0264C18.181 23.1876 23.1876 18.181 23.1876 12.0264V11.9736C23.1876 5.81904 18.181 0.812375 12.0264 0.812375H11.9736Z" fill="white"/>
</svg>
